<mxfile host="app.diagrams.net" modified="2021-12-08T06:09:23.947Z" agent="5.0 (Windows NT 10.0; Win64; x64) AppleWebKit/537.36 (KHTML, like Gecko) Chrome/96.0.4664.45 Safari/537.36" etag="4IQcagTm3G2Vn8NLOxe4" version="15.9.1" type="github">
  <diagram id="IyEMhkDuG2c1oEvzkGJU" name="Page-1">
    <mxGraphModel dx="1718" dy="442" grid="1" gridSize="10" guides="1" tooltips="1" connect="1" arrows="1" fold="1" page="1" pageScale="1" pageWidth="850" pageHeight="1100" math="0" shadow="0">
      <root>
        <mxCell id="0" />
        <mxCell id="1" parent="0" />
        <mxCell id="ICH9W-tHNwmFsDZKXTBF-15" value="" style="edgeStyle=orthogonalEdgeStyle;rounded=0;orthogonalLoop=1;jettySize=auto;html=1;" edge="1" parent="1" source="ICH9W-tHNwmFsDZKXTBF-1" target="ICH9W-tHNwmFsDZKXTBF-14">
          <mxGeometry relative="1" as="geometry" />
        </mxCell>
        <mxCell id="ICH9W-tHNwmFsDZKXTBF-1" value="Material app" style="rounded=1;whiteSpace=wrap;html=1;" vertex="1" parent="1">
          <mxGeometry x="365" y="60" width="120" height="60" as="geometry" />
        </mxCell>
        <mxCell id="ICH9W-tHNwmFsDZKXTBF-17" value="" style="edgeStyle=orthogonalEdgeStyle;rounded=0;orthogonalLoop=1;jettySize=auto;html=1;" edge="1" parent="1" source="ICH9W-tHNwmFsDZKXTBF-14" target="ICH9W-tHNwmFsDZKXTBF-16">
          <mxGeometry relative="1" as="geometry" />
        </mxCell>
        <mxCell id="ICH9W-tHNwmFsDZKXTBF-19" value="" style="edgeStyle=orthogonalEdgeStyle;rounded=0;orthogonalLoop=1;jettySize=auto;html=1;" edge="1" parent="1" source="ICH9W-tHNwmFsDZKXTBF-14" target="ICH9W-tHNwmFsDZKXTBF-18">
          <mxGeometry relative="1" as="geometry" />
        </mxCell>
        <mxCell id="ICH9W-tHNwmFsDZKXTBF-21" value="" style="edgeStyle=orthogonalEdgeStyle;rounded=0;orthogonalLoop=1;jettySize=auto;html=1;" edge="1" parent="1" source="ICH9W-tHNwmFsDZKXTBF-14" target="ICH9W-tHNwmFsDZKXTBF-20">
          <mxGeometry relative="1" as="geometry" />
        </mxCell>
        <mxCell id="ICH9W-tHNwmFsDZKXTBF-14" value="Scaffold" style="rounded=1;whiteSpace=wrap;html=1;" vertex="1" parent="1">
          <mxGeometry x="365" y="200" width="120" height="60" as="geometry" />
        </mxCell>
        <mxCell id="ICH9W-tHNwmFsDZKXTBF-23" value="" style="edgeStyle=orthogonalEdgeStyle;rounded=0;orthogonalLoop=1;jettySize=auto;html=1;" edge="1" parent="1" source="ICH9W-tHNwmFsDZKXTBF-16" target="ICH9W-tHNwmFsDZKXTBF-22">
          <mxGeometry relative="1" as="geometry" />
        </mxCell>
        <mxCell id="ICH9W-tHNwmFsDZKXTBF-29" value="" style="edgeStyle=orthogonalEdgeStyle;rounded=0;orthogonalLoop=1;jettySize=auto;html=1;" edge="1" parent="1" source="ICH9W-tHNwmFsDZKXTBF-16" target="ICH9W-tHNwmFsDZKXTBF-28">
          <mxGeometry relative="1" as="geometry" />
        </mxCell>
        <mxCell id="ICH9W-tHNwmFsDZKXTBF-16" value="Appbar&amp;nbsp;" style="rounded=1;whiteSpace=wrap;html=1;" vertex="1" parent="1">
          <mxGeometry x="165" y="200" width="120" height="60" as="geometry" />
        </mxCell>
        <mxCell id="ICH9W-tHNwmFsDZKXTBF-18" value="Color" style="rounded=1;whiteSpace=wrap;html=1;" vertex="1" parent="1">
          <mxGeometry x="565" y="200" width="120" height="60" as="geometry" />
        </mxCell>
        <mxCell id="ICH9W-tHNwmFsDZKXTBF-25" value="" style="edgeStyle=orthogonalEdgeStyle;rounded=0;orthogonalLoop=1;jettySize=auto;html=1;" edge="1" parent="1" source="ICH9W-tHNwmFsDZKXTBF-20" target="ICH9W-tHNwmFsDZKXTBF-24">
          <mxGeometry relative="1" as="geometry" />
        </mxCell>
        <mxCell id="ICH9W-tHNwmFsDZKXTBF-20" value="center" style="rounded=1;whiteSpace=wrap;html=1;" vertex="1" parent="1">
          <mxGeometry x="365" y="340" width="120" height="60" as="geometry" />
        </mxCell>
        <mxCell id="ICH9W-tHNwmFsDZKXTBF-22" value="Text" style="rounded=1;whiteSpace=wrap;html=1;" vertex="1" parent="1">
          <mxGeometry x="165" y="340" width="120" height="60" as="geometry" />
        </mxCell>
        <mxCell id="ICH9W-tHNwmFsDZKXTBF-27" value="" style="edgeStyle=orthogonalEdgeStyle;rounded=0;orthogonalLoop=1;jettySize=auto;html=1;" edge="1" parent="1" source="ICH9W-tHNwmFsDZKXTBF-24" target="ICH9W-tHNwmFsDZKXTBF-26">
          <mxGeometry relative="1" as="geometry" />
        </mxCell>
        <mxCell id="ICH9W-tHNwmFsDZKXTBF-24" value="Image" style="rounded=1;whiteSpace=wrap;html=1;" vertex="1" parent="1">
          <mxGeometry x="365" y="480" width="120" height="60" as="geometry" />
        </mxCell>
        <mxCell id="ICH9W-tHNwmFsDZKXTBF-26" value="NetworkImage" style="rounded=1;whiteSpace=wrap;html=1;" vertex="1" parent="1">
          <mxGeometry x="365" y="620" width="120" height="60" as="geometry" />
        </mxCell>
        <mxCell id="ICH9W-tHNwmFsDZKXTBF-28" value="Color" style="rounded=1;whiteSpace=wrap;html=1;" vertex="1" parent="1">
          <mxGeometry x="-35" y="200" width="120" height="60" as="geometry" />
        </mxCell>
      </root>
    </mxGraphModel>
  </diagram>
</mxfile>
